<?xml version="1.0" encoding="UTF-8"?>
<svg version="1.1" xmlns="http://www.w3.org/2000/svg" width="200" height="48">
<path d="M0 0 C-0.23783203 0.84304687 -0.23783203 0.84304687 -0.48046875 1.703125 C-6.17468455 22.14807663 -6.17468455 22.14807663 -10 43 C-12.56199444 40.48205131 -14.85282063 37.88758605 -17 35 C-17 34.34 -17 33.68 -17 33 C-18.33273111 32.33213024 -19.66620785 31.66574824 -21 31 C-22.01513672 30.47019531 -22.01513672 30.47019531 -23.05078125 29.9296875 C-34.02169732 24.81371628 -45.82290777 26.09615074 -57 30 C-55.60513841 25.81541522 -52.61974767 24.46671001 -49.0625 22.1875 C-48.37446289 21.74100098 -47.68642578 21.29450195 -46.97753906 20.83447266 C-45.60309654 19.94620776 -44.22602364 19.06199809 -42.84619141 18.18212891 C-41.36926735 17.23644439 -39.90670417 16.26834567 -38.44921875 15.29296875 C-28.4680495 8.85750794 -12.10971806 0 0 0 Z " fill="#1E558B" transform="translate(57,3)"/>
<path d="M0 0 C3.75190947 4.68988684 3.61617962 9.73187415 3 15.5 C0.49426586 23.37127356 -5.02099047 28.34229219 -12 32.5 C-14.97326924 33.4511844 -17.65388188 33.61760332 -20.765625 33.59765625 C-21.65507813 33.59443359 -22.54453125 33.59121094 -23.4609375 33.58789062 C-24.84152344 33.57532227 -24.84152344 33.57532227 -26.25 33.5625 C-27.65378906 33.55573242 -27.65378906 33.55573242 -29.0859375 33.54882812 C-31.39069041 33.53706918 -33.69531227 33.52063426 -36 33.5 C-35.20955463 29.20810748 -34.41741916 24.9165285 -33.625 20.625 C-33.40328125 19.42101562 -33.1815625 18.21703125 -32.953125 16.9765625 C-32.30763273 13.48331024 -31.65595392 9.991302 -31 6.5 C-30.81018555 5.48389648 -30.62037109 4.46779297 -30.42480469 3.42089844 C-30.25110352 2.51629883 -30.07740234 1.61169922 -29.8984375 0.6796875 C-29.74810059 -0.10937988 -29.59776367 -0.89844727 -29.44287109 -1.71142578 C-29 -3.5 -29 -3.5 -28 -4.5 C-17.92625112 -6.09059193 -8.26411859 -6.88676549 0 0 Z M-21 1.5 C-21.67097694 5.10337813 -22.33603957 8.70782296 -23 12.3125 C-23.28617188 13.84874023 -23.28617188 13.84874023 -23.578125 15.41601562 C-23.75859375 16.39892578 -23.9390625 17.38183594 -24.125 18.39453125 C-24.29257813 19.30050049 -24.46015625 20.20646973 -24.6328125 21.13989258 C-25.0768657 23.59597295 -25.0768657 23.59597295 -25 26.5 C-20.28809898 26.87695208 -16.92629407 26.96314703 -12.625 24.8125 C-8.19852965 20.91299041 -6.46412964 17.29999129 -5.9375 11.49609375 C-6.04093621 8.19259966 -7.10339434 6.15524792 -9 3.5 C-12.91115894 1.10984731 -16.51688776 1.44738131 -21 1.5 Z " fill="#1E568A" transform="translate(92,9.5)"/>
<path d="M0 0 C0.78503906 -0.00386719 1.57007813 -0.00773438 2.37890625 -0.01171875 C8.24669213 -0.00165394 8.24669213 -0.00165394 10.5 1.125 C10.17 3.105 9.84 5.085 9.5 7.125 C5.93954823 8.31181726 3.06191663 8.22189832 -0.6875 8.1875 C-1.95980469 8.17847656 -3.23210937 8.16945313 -4.54296875 8.16015625 C-6.00669922 8.14275391 -6.00669922 8.14275391 -7.5 8.125 C-7.83 10.765 -8.16 13.405 -8.5 16.125 C-3.88 16.125 0.74 16.125 5.5 16.125 C5.17 18.105 4.84 20.085 4.5 22.125 C-0.12 22.455 -4.74 22.785 -9.5 23.125 C-10.16 26.095 -10.82 29.065 -11.5 32.125 C-5.56 32.125 0.38 32.125 6.5 32.125 C6.17 34.435 5.84 36.745 5.5 39.125 C-3.74 39.125 -12.98 39.125 -22.5 39.125 C-21.71625 34.814375 -20.9325 30.50375 -20.125 26.0625 C-19.88217285 24.71663818 -19.6393457 23.37077637 -19.38916016 21.98413086 C-16.46238208 6.03926297 -16.46238208 6.03926297 -13 2.75 C-8.5947253 -0.11342856 -5.14176832 -0.02532891 0 0 Z " fill="#1E558A" transform="translate(152.5,3.875)"/>
<path d="M0 0 C-0.875 4.75 -0.875 4.75 -2 7 C-5.23510036 7.36097871 -8.45061201 7.44453504 -11.703125 7.55859375 C-15.25337559 8.03392351 -17.14744347 8.87456572 -20 11 C-23.21458317 15.76645091 -23.70765866 19.42718805 -23 25 C-21.55277877 28.2850297 -21.55277877 28.2850297 -18 30 C-13.30371659 30.40952868 -8.70107075 30.28626277 -4 30 C-4.33 32.64 -4.66 35.28 -5 38 C-12.81177648 39.00212898 -19.87199814 39.88394256 -27 36 C-30.86092307 32.79625533 -33.59746265 29.75223208 -34.3359375 24.703125 C-34.44803863 17.6631743 -33.20950182 12.67773153 -28.52734375 7.3125 C-21.62158592 0.78223255 -9.24638304 -4.62319152 0 0 Z " fill="#21588C" transform="translate(198,5)"/>
<path d="M0 0 C1.29873047 0.00966797 2.59746094 0.01933594 3.93554688 0.02929688 C5.30729764 0.0543629 6.67904243 0.07975774 8.05078125 0.10546875 C9.43423049 0.12051855 10.81769526 0.13420645 12.20117188 0.14648438 C15.58893332 0.18189652 18.97591264 0.23128821 22.36328125 0.29296875 C22.03328125 2.60296875 21.70328125 4.91296875 21.36328125 7.29296875 C17.40328125 7.29296875 13.44328125 7.29296875 9.36328125 7.29296875 C9.09515625 9.06671875 8.82703125 10.84046875 8.55078125 12.66796875 C7.23676534 21.22325221 5.80021025 29.75761049 4.36328125 38.29296875 C1.06328125 38.29296875 -2.23671875 38.29296875 -5.63671875 38.29296875 C-4.22922359 27.81083372 -2.01732577 17.58967191 0.36328125 7.29296875 C-3.59671875 7.29296875 -7.55671875 7.29296875 -11.63671875 7.29296875 C-8.46682033 0.95317191 -7.16912229 -0.09391863 0 0 Z " fill="#22598C" transform="translate(109.63671875,4.70703125)"/>
<path d="M0 0 C-2 7.33333333 -4 14.66666667 -6 22 C-10.39269941 22 -12.29386552 21.09942804 -16.1875 19.1875 C-21.3952184 16.70119652 -26.48511675 14.68250675 -32 13 C-30.71132515 10.4226503 -29.69170194 10.25556079 -27.0625 9.16015625 C-26.24910156 8.81919922 -25.43570312 8.47824219 -24.59765625 8.12695312 C-23.74042969 7.77568359 -22.88320313 7.42441406 -22 7.0625 C-21.17371094 6.71509766 -20.34742188 6.36769531 -19.49609375 6.00976562 C-5.03191208 0 -5.03191208 0 0 0 Z " fill="#EF9E19" transform="translate(57,3)"/>
<path d="M0 0 C-1.61594832 2.04119788 -3.2856382 4.04072937 -5 6 C-5.66 6 -6.32 6 -7 6 C-7.2475 6.598125 -7.495 7.19625 -7.75 7.8125 C-9.74855998 11.30997997 -11.88582273 12.63724461 -15.6875 13.875 C-20.21810086 14.04596607 -23.82317352 12.64288508 -28 11 C-26.68628211 8.37256422 -25.5398532 8.19878471 -22.8515625 7.08984375 C-22.01109375 6.73986328 -21.170625 6.38988281 -20.3046875 6.02929688 C-19.42039062 5.66900391 -18.53609375 5.30871094 -17.625 4.9375 C-16.7484375 4.57333984 -15.871875 4.20917969 -14.96875 3.83398438 C-5.34958785 -0.14458346 -5.34958785 -0.14458346 0 0 Z " fill="#F29B0E" transform="translate(53,5)"/>
<path d="M0 0 C-0.39595843 1.48484412 -0.81750706 2.9628831 -1.25 4.4375 C-1.59804688 5.67306641 -1.59804688 5.67306641 -1.953125 6.93359375 C-2.47132812 7.95646484 -2.47132812 7.95646484 -3 9 C-4.875 9.5625 -4.875 9.5625 -7 10 C-8.97173354 11.61054862 -8.97173354 11.61054862 -10.75 13.5625 C-11.36359375 14.20316406 -11.9771875 14.84382813 -12.609375 15.50390625 C-13.29773437 16.24447266 -13.29773437 16.24447266 -14 17 C-14.33 16.01 -14.66 15.02 -15 14 C-12.39587371 9.20840762 -9.23679495 6.27388701 -5 3 C-5.33 2.34 -5.66 1.68 -6 1 C-3 0 -3 0 0 0 Z " fill="#F39B13" transform="translate(57,3)"/>
<path d="M0 0 C0.33 0.99 0.66 1.98 1 3 C5.62 3 10.24 3 15 3 C14.67 4.98 14.34 6.96 14 9 C9.38 9.33 4.76 9.66 0 10 C-0.33 11.98 -0.66 13.96 -1 16 C-1.33 16 -1.66 16 -2 16 C-2.38063221 13.6739143 -2.71269945 11.33944736 -3 9 C-2 8 -2 8 1.37890625 7.90234375 C2.77347077 7.90901631 4.16801743 7.92097468 5.5625 7.9375 C6.27341797 7.94201172 6.98433594 7.94652344 7.71679688 7.95117188 C9.47790013 7.96299136 11.23896036 7.98092737 13 8 C13 6.68 13 5.36 13 4 C8.71 4 4.42 4 0 4 C0 2.68 0 1.36 0 0 Z " fill="#4876A0" transform="translate(143,17)"/>
<path d="M0 0 C-1.34603482 4.03810445 -3.65336723 5.47295076 -7 8 C-7.66 8 -8.32 8 -9 8 C-9.33 8.99 -9.66 9.98 -10 11 C-9.73212125 7.07111171 -9.47562903 5.45123779 -6.5625 2.6875 C-2.48148148 0 -2.48148148 0 0 0 Z " fill="#306394" transform="translate(146,4)"/>
<path d="M0 0 C0.66 0.33 1.32 0.66 2 1 C1.67 1.99 1.34 2.98 1 4 C1.66 4.33 2.32 4.66 3 5 C-2.445 6.485 -2.445 6.485 -8 8 C-6.88333826 4.65001479 -6.25305075 4.20659778 -3.4375 2.3125 C-2.79683594 1.87550781 -2.15617188 1.43851563 -1.49609375 0.98828125 C-1.00238281 0.66214844 -0.50867188 0.33601563 0 0 Z " fill="#3C6C99" transform="translate(8,25)"/>
<path d="M0 0 C2.96175123 0.61277612 4.38058783 1.25372522 7 3 C7.1875 6.125 7.1875 6.125 7 9 C4.08511023 6.3765992 2.11496102 3.28183606 0 0 Z " fill="#386896" transform="translate(40,37)"/>
<path d="M0 0 C-0.33 1.65 -0.66 3.3 -1 5 C-1.99 5 -2.98 5 -4 5 C-5.68798827 6.43750191 -5.68798827 6.43750191 -7 8 C-7.66 7.67 -8.32 7.34 -9 7 C-7.68 5.68 -6.36 4.36 -5 3 C-5.33 2.34 -5.66 1.68 -6 1 C-3 0 -3 0 0 0 Z " fill="#F6B448" transform="translate(57,3)"/>
<path d="M0 0 C0.33 0 0.66 0 1 0 C2.38766322 6.05525768 1.49118146 9.32010626 -1 15 C-2.20220203 11.46905698 -1.79532349 8.87101018 -1.0625 5.25 C-0.86785156 4.26515625 -0.67320313 3.2803125 -0.47265625 2.265625 C-0.31667969 1.51796875 -0.16070312 0.7703125 0 0 Z " fill="#567FA7" transform="translate(61,16)"/>
</svg>
